<?xml version="1.0" encoding="UTF-8"?>
<!-- Created with Inkscape (http://www.inkscape.org/) -->
<svg width="512" height="512" version="1.1" viewBox="0 0 135.47 135.47" xmlns="http://www.w3.org/2000/svg"><g transform="translate(0 -323.07)"><rect x="1.4211e-14" y="323.07" width="135.47" height="135.47" fill="#892ca0"/><path d="m54.187 343.39c-11.142 0-20.32 9.1778-20.32 20.32h13.541c0-3.8211 2.9576-6.7786 6.7786-6.7786zm27.093 0v13.541c3.821 0 6.7786 2.9575 6.7786 6.7786h13.541c0-11.142-9.1778-20.32-20.32-20.32zm-40.635 27.099c-11.142 0-20.32 9.1778-20.32 20.32 0 8.6039 5.4838 16.015 13.107 18.955-0.45025 2.7315-1.2335 4.8307-2.3654 6.768-1.7782 3.0435-4.6939 6.0486-8.763 10.118l-22.304 22.31v9.5779h9.5832l22.304-22.304c4.0589-4.0589 7.9165-7.7925 10.88-12.864 2.1939-3.7549 3.6768-8.1576 4.3021-13.314 8.0356-2.7168 13.896-10.345 13.896-19.246 0-11.142-9.1778-20.32-20.32-20.32zm54.181 0c-11.142 0-20.32 9.1778-20.32 20.32 0 8.8928 5.855 16.518 13.88 19.241 0.62945 5.1588 2.1232 9.5626 4.318 13.319 2.9631 5.0716 6.8208 8.8052 10.88 12.864l22.31 22.304h9.5726v-9.5673l-22.299-22.32c-4.0691-4.0692-6.9848-7.0742-8.763-10.118-1.132-1.9373-1.9151-4.0365-2.3654-6.768 7.6236-2.9399 13.107-10.351 13.107-18.955 0-11.142-9.1778-20.32-20.32-20.32zm-54.181 13.541c3.821 0 6.7628 2.9576 6.7628 6.7786 0 3.8211-2.9417 6.7628-6.7628 6.7628-3.821 0-6.7786-2.9418-6.7786-6.7628 0-3.821 2.9576-6.7786 6.7786-6.7786zm54.181 0c3.821 0 6.7786 2.9576 6.7786 6.7786 0 3.8211-2.9576 6.7628-6.7786 6.7628-3.821 0-6.7786-2.9418-6.7786-6.7628 0-3.821 2.9576-6.7786 6.7786-6.7786zm-40.64 47.413v13.547h27.093v-13.547z" color="#000000" color-rendering="auto" dominant-baseline="auto" fill="#fff" image-rendering="auto" shape-rendering="auto" solid-color="#000000" style="font-feature-settings:normal;font-variant-alternates:normal;font-variant-caps:normal;font-variant-ligatures:normal;font-variant-numeric:normal;font-variant-position:normal;isolation:auto;mix-blend-mode:normal;shape-padding:0;text-decoration-color:#000000;text-decoration-line:none;text-decoration-style:solid;text-indent:0;text-orientation:mixed;text-transform:none;white-space:normal"/></g></svg>
