<?xml version="1.0" encoding="UTF-8"?>
<!-- Created with Inkscape (http://www.inkscape.org/) -->
<svg width="512" height="512" version="1.1" viewBox="0 0 512 512" xmlns="http://www.w3.org/2000/svg" xmlns:cc="http://creativecommons.org/ns#" xmlns:dc="http://purl.org/dc/elements/1.1/" xmlns:rdf="http://www.w3.org/1999/02/22-rdf-syntax-ns#"><g transform="translate(0 -1221)"><path fill="currentColor" d="m199.25 1221-113.46 56.73v56.73l113.46-56.73 113.5 56.73 113.46-56.73v-56.73l-113.46 56.73zm0 113.46-113.46 56.73v56.782l113.46-56.782 113.5 56.782 113.46-56.782v-56.73l-113.46 56.73zm0 113.51-113.46 56.679v56.782l113.46-56.782 113.5 56.782 113.46-56.782v-56.679l-113.46 56.679zm-76.795 167.89c-22.414 0-35.04 14.336-35.04 32.256 0 12.288 9.232 23.552 22.573 31.744 9.7835 6.6561 15.658 11.776 15.658 20.992 0 9.7281-6.4077 15.872-18.151 15.872-6.2273 0-14.037 0-18.484-5.1201l-3.1916 15.872c3.7374 0 12.781 5.1201 21.675 5.1201 21.524 0 36.835-13.312 36.835-33.792 0-12.288-6.0621-23.04-21.177-32.768-12.273-7.6801-17.054-11.776-17.054-20.48 0-7.1681 5.141-13.824 15.991-13.824 6.4007 0 11.38 0 14.761 5.1201l3.391-15.872c-3.1976 0-10.137-5.1201-17.786-5.1201zm40.924 0-8.0118 114.69h16.556l2.1274-43.52c0.71339-13.824 1.4217-28.672 1.594-41.472h0.53589c2.1357 12.8 5.3455 27.136 8.5439 38.4l11.735 45.569h12.965l12.467-46.593c2.8435-11.264 6.0319-25.088 8.3446-37.376h0.53589c-0.19285 12.8 0.50347 28.16 1.2305 40.96l2.3267 44.032h17.254l-7.1141-114.69h-20.451l-11.237 46.593c-3.5574 14.848-6.2111 27.136-8.3444 39.936h-0.33622c-2.3156-12.8-5.3434-25.088-9.0755-39.936l-11.536-46.593zm105.82 0v114.69h19.049v-114.69zm51.861 0 0.0341 80.692c0 16.384-5.7144 19.456-13.896 19.456-2.6699 0-5.1591-0.2048-7.1144 0l-1.594 15.36h10.505c17.077 0 31.117-6.1441 31.117-35.84v-80.027zm38.464 0v114.69h16.755v-31.744c0-24.064-0.51541-39.936-1.4302-53.3h0.30379c3.3838 12.288 8.7182 26.112 13.165 36.352l20.478 48.641h17.42v-114.69h-16.722v32.256c0 20.48 1.065 37.888 2.1274 52.737h-0.33621c-3.7373-11.264-9.7601-26.112-14.029-36.352l-20.279-49.153z"/></g></svg>
