<?xml version="1.0" encoding="UTF-8"?>
<!-- Created with Inkscape (http://www.inkscape.org/) -->
<svg width="512" height="512" version="1.1" viewBox="0 0 512 512" xmlns="http://www.w3.org/2000/svg" xmlns:cc="http://creativecommons.org/ns#" xmlns:dc="http://purl.org/dc/elements/1.1/" xmlns:rdf="http://www.w3.org/1999/02/22-rdf-syntax-ns#"><g transform="translate(0 -1221)"><path fill="currentColor" d="m256 1221a256 256 0 0 0-149.1 48.299l149.2 178.9 149-179a256 256 0 0 0-149.1-48.2zm-219.2 124.3a256 256 0 0 0-36.8 131.7 256 256 0 0 0 256 256 256 256 0 0 0 256-256 256 256 0 0 0-36.8-131.7l-179.8 215.9a51.205 51.205 0 0 1-78.599 0z" filter="url(#filter6206)" style="paint-order:normal"/></g></svg>
