<?xml version="1.0" encoding="UTF-8" standalone="no"?>
<!-- Created with Inkscape (http://www.inkscape.org/) -->
<svg width="512" height="512" version="1.1" viewBox="0 0 512 512" id="svg1" xmlns="http://www.w3.org/2000/svg" xmlns:svg="http://www.w3.org/2000/svg"><path fill="currentColor" d="M 114.71885,322.61663 H 29.30809 c -19.6004351,0 -29.36963938,-7.75334 -29.30761269417,-23.26001 0,-4.03173 0.68229363417,-8.68373 2.04688089417,-13.956 L 17.864165,226.59931 c 6.636857,-24.81068 22.360624,-37.21602 47.171301,-37.21602 h 85.410764 l -7.62928,28.5633 H 95.73868 c -12.405339,0 -20.282729,6.20267 -23.632171,18.60801 l -10.420484,38.89073 c -0.682294,2.60513 -1.023441,4.96214 -1.023441,7.07105 0,7.69131 4.900109,11.53696 14.700327,11.53696 h 47.078269 z m 68.10531,0 h -56.9405 l 35.72737,-133.23334 h 56.94051 z m 161.42447,0 -61.77859,-0.093 -23.07393,-31.44753 -8.46665,31.54057 h -56.9405 l 35.72737,-133.23334 h 103.46053 c 19.53841,0 29.30761,7.69131 29.30761,23.07394 0,4.15579 -0.68229,8.86981 -2.04688,14.14208 l -3.2564,12.00217 c -6.69888,24.99675 -22.42265,37.40209 -47.1713,37.21601 z m -42.33322,-90.06276 c 0.43419,-1.73675 0.65128,-3.28741 0.65128,-4.652 0,-6.63685 -5.1172,-9.95528 -15.35161,-9.95528 h -8.18752 l -7.90841,29.30761 h 8.18753 c 12.40534,0 19.94158,-4.90011 22.60873,-14.70033 z m 210.08441,90.06276 h -59.17346 l 0.65128,-26.23729 H 416.9129 l -13.49081,26.23729 h -59.17346 l 62.80203,-105.60044 h 41.58889 l -25.12081,-27.6329 h 80.75876 z m -58.24306,-53.87018 1.48864,-47.45042 -24.65561,47.45042 z" /></svg>
