<?xml version="1.0" encoding="UTF-8"?>
<!-- Created with Inkscape (http://www.inkscape.org/) -->
<svg width="512" height="512" version="1.1" viewBox="0 0 512 512" xmlns="http://www.w3.org/2000/svg" xmlns:cc="http://creativecommons.org/ns#" xmlns:dc="http://purl.org/dc/elements/1.1/" xmlns:rdf="http://www.w3.org/1999/02/22-rdf-syntax-ns#"><g transform="translate(0 -1221)"><path fill="currentColor" d="m0 1313.2v109.09h275.92c11.642-4.7547 24.139-7.6202 37.076-8.9514l14.483-34.946-28.763 3.2187 62.218-56.89c5.2552-4.806 12.246-8.023 18.959-11.517zm450.85 2.7153c-2.2627-3.3929-10.46 7.5691-14.483 13.428-25.245-4.4765-43.018 2.7154-57.101 15.565 27.405-3.1163-11.592 6.6373-24.089 37.074 29.324-12.95-10.611 7.6936-4.7024 49.649-5.8839 4.7275-13.377 6.8386-21.951 7.6442-28.65 0.7509-52.002 7.2908-65.201 24.062-19.462 8.5743-37.73 26.832-55.185 51.565-6.8144 16.294-45.555 25.639-59.02 28.129 6.6884 2.7153 12.949 4.5482 18.959 5.7344 104.21 20.545 48.874-72.806 85.228-63.282-1.7604 24.038 12.371 45.643 35.153 59.662 4.9783 10.812 3.0923 22.605-2.2629 34.946-0.50347 13.679 5.0036 19.161 15.766 18.758 16.093 8.1732 23.837 17.249 28.554 26.614l12.774 3.8434 6.8142 11.517c11.541 0.256 17.375-1.007 19.185-7.2414l-5.1292-7.0144 4.4759-1.519c-0.50347-4.5533-2.6653-8.3985-6.3865-11.29-5.4313-2.9934-12.019-3.2699-20.669-3.6198-5.3306-6.2362-13.83-12.269-22.806-15.966-3.998-6.1866-4.7773-13.1-0.75434-21.726 5.6074-11.163 11.114-27.046 17.048-35.582 0.75435-10.259 1.7603-16.017 3.8217-17.678 29.09 10.713 58.962-3.4184 84.801-27.918l9.7812 10.209c14.836-2.0122 26.684-4.9801 29.402-12.372 7.0907 6.0826 9.2281 13.276 9.7812 21.098-1.2578 6.2635-1.5087 12.899-0.75435 19.611-3.0923 0.256-6.1104 2.0139-9.1527 5.5092-1.5087 12.674-1.0052 20.92 2.9672 21.724 3.847-0.512 7.0405-3.8434 9.6053-9.5539 2.5143-10.184 5.0287-15.363 7.8954-16.621 3.6709-2.0122 4.5012-6.0365 2.5395-13-3.4193-4.7019-4.6771-13.728-5.5318-23.636l-3.6212-9.3799 6.1607 0.512c6.1104 2.9935 10.133 8.274 12.346 15.565 2.8414 7.494 3.7968 15.942 4.0484 24.694l-4.4759 2.263c-2.8918 6.2379-3.7465 12.297-2.766 18.557 9.7311 16.37 13.955 6.2635 14.911-5.7344l0.75435-8.9514 1.7602-4.0244c2.7407-5.7344 2.8414-12.573 2.5395-19.587-5.5564-8.5504-10.937-17.3-12.999-31.107-0.75434-3.8451-3.2188-6.4631-6.8144-7.6442-3.5458-1.5018-8.2725-1.5018-14.056-1.0069-10.184 2.5156-21.474 2.6897-33.666 1.0069 2.9672-17.828-3.998-30.631-10.661-44.324-6.135-12.471-10.435-21.799-7.6692-36.002 1.5087-7.5179 4.7024-10.912 8.9516-12.597 11.24 13.703 18.683 17.401 23.661 15.766 1.7602 12.899 14.031 15.514 21.951 5.3282 1.5087-9.3048-0.25088-15.438-5.3306-20.442-5.9344-12.624-10.033-32.075-17.677-37.926l-0.50347-20.243-6.3865 5.7344c1.0069-5.0313 1.0069-7.6186 0.22528-8.7245zm-450.85 215.63v109.09h307.25l-1.0069-2.5156c-2.2627-4.5995-5.3053-7.668-13.427-12.372-8.2978-1.5019-17.048-5.231-23.435-12.597-9.2532-10.561-10.913-23.108-10.435-33.882l0.21846-5.1029 2.0118-4.6763c1.7604-4.1984 2.666-6.8386 2.9679-8.7245-3.7966-2.9935-7.9206-5.7344-11.29-9.1528-4.5766 7.1151-10.636 13.955-19.186 18.732-18.557 10.561-41.512 11.341-70.951 5.5091-8.7504-1.519-16.017-4.3998-23.008-7.0161l-95.243-35.366 12.572-2.2647z"/></g></svg>
