<?xml version="1.0" encoding="UTF-8"?>
<!-- Created with Inkscape (http://www.inkscape.org/) -->
<svg width="512" height="512" version="1.1" viewBox="0 0 512 512" xmlns="http://www.w3.org/2000/svg" xmlns:cc="http://creativecommons.org/ns#" xmlns:dc="http://purl.org/dc/elements/1.1/" xmlns:rdf="http://www.w3.org/1999/02/22-rdf-syntax-ns#"><g transform="translate(0 -1221)"><path fill="currentColor" d="m363.59 1221-14.93 44.79 63.951 21.292-93.339 93.339c-45.396-30.234-107.19-26.341-146.66 13.133-39.474 39.475-43.369 101.27-13.134 146.67l-93.388 93.387-21.293-63.951-44.79 14.932 37.103 111.31 111.31 37.103 14.979-44.742-63.932-21.311 93.377-93.377c45.401 30.203 107.2 26.332 146.66-13.126 39.457-39.456 43.325-101.25 13.123-146.65l93.331-93.334 21.311 63.935 44.741-14.983-37.103-111.31zm-109.11 186.39c17.721 0.256 35.636 7.4001 49.687 21.449 28.102 28.102 28.459 71.666 1.9203 98.205-26.538 26.537-70.148 26.226-98.25-1.8774-28.102-28.102-28.412-71.712-1.8745-98.251 13.269-13.268 30.796-19.813 48.517-19.528z"/></g></svg>
