<?xml version="1.0" encoding="UTF-8" standalone="no"?>
<svg width="512" height="512" version="1.1" viewBox="0 0 512 512" xmlns="http://www.w3.org/2000/svg" xmlns:cc="http://creativecommons.org/ns#" xmlns:dc="http://purl.org/dc/elements/1.1/" xmlns:rdf="http://www.w3.org/1999/02/22-rdf-syntax-ns#"><path fill="currentColor" d="m 359.79329,139.3222 c 8.45549,-8.73046 8.24926,-22.61671 -0.4812,-31.0722 -8.73047,-8.455492 -22.61673,-8.24926 -31.07222,0.4812 L 221.54946,218.72133 189.99605,251.16841 V 123.99234 c 0,-12.16766 -9.83037,-21.99803 -21.99803,-21.99803 -12.16765,0 -21.99802,9.83037 -21.99802,21.99803 v 181.48369 82.49259 c 0,12.16766 9.83037,21.99802 21.99802,21.99802 12.16766,0 21.99803,-9.83036 21.99803,-21.99802 v -73.55589 l 44.47725,-45.85213 91.42929,131.98814 c 6.94312,9.96785 20.62314,12.44263 30.59099,5.56825 9.96786,-6.87438 12.44264,-20.62315 5.56826,-30.591 L 265.68299,236.31974 Z M 464,256 a 208,208 0 1 0 -416,0 208,208 0 1 0 416,0 z M 0,256 a 256,256 0 1 1 512,0 256,256 0 1 1 -512,0 z"/></svg>
