<?xml version="1.0" encoding="UTF-8"?>
<!-- Created with Inkscape (http://www.inkscape.org/) -->
<svg width="512" height="512" version="1.1" viewBox="0 0 512 512" xmlns="http://www.w3.org/2000/svg" xmlns:cc="http://creativecommons.org/ns#" xmlns:dc="http://purl.org/dc/elements/1.1/" xmlns:rdf="http://www.w3.org/1999/02/22-rdf-syntax-ns#"><g transform="translate(0 -1221)"><path fill="currentColor" d="m256 1229.4a247.62 49.523 0 0 0-247.62 49.524h495.23a247.62 49.523 0 0 0-247.62-49.524zm-254.87 121.52-1.1295 0.9728v239.07l1.1295 1.1264h51.426l1.1604-1.1264v-127.35h0.48384c40.086 82.968 61.258 125.8 63.517 128.48h23.053l23.053 0.512v-0.512l0.64563-0.6486v-239.56l-1.1295-0.9728h-51.429l-0.51609 0.512-0.64564 127.35v1.1264h-0.48384l-47.396-98.178c-9.1355-20.311-14.348-30.575-15.637-30.79zm264.22 0.3242c-10.64 0-20.904 1.8774-30.791 5.6372-33.854 16.121-50.781 53.038-50.781 110.75v7.5759c0 20.42 2.5253 39.818 7.5767 58.197 12.79 39.441 37.616 59.163 74.479 59.163h0.48384c12.252 0 23.805-2.3671 34.66-7.0946 32.349-17.302 48.524-55.187 48.524-113.65 0-18.485-1.7719-35.842-5.3196-52.07-11.608-45.676-36.809-68.514-75.607-68.514zm175.07 0.9728c-21.925 0-40.625 6.3915-56.101 19.183-12.467 13.22-18.7 27.783-18.7 43.687v5.161c0 10.639 4.1379 20.958 12.413 30.954 8.7053 9.5642 20.42 19.773 35.144 30.628 27.084 17.519 40.625 31.92 40.625 43.204v1.2971c0 2.0394-0.37411 3.6574-1.1295 4.8384-4.621 9.8884-13.327 14.831-26.116 14.831h-2.0957c-10.425 0-21.817-5.6951-34.176-17.087h-0.64563l-29.824 35.304c0 0.7509 0.91461 1.9353 2.7408 3.5413 25.363 16.551 48.846 24.827 70.449 24.827 3.4393 0 9.4578-0.8704 18.055-2.5737 40.625-11.5 60.937-33.586 60.937-66.258 0-26.008-11.553-45.783-34.66-59.324-18.485-12.682-32.188-23.484-41.108-32.404-7.5232-6.1269-11.285-12.198-11.285-18.215-1.8e-4 -3.2256 0.69786-6.0194 2.0957-8.3831 4.514-7.8456 11.499-11.769 20.957-11.769 10.532 0 21.924 4.509 34.176 13.542l25.632-37.077c-16.444-11.931-37.293-17.896-62.549-17.896zm-173.46 40.786c19.453 0 29.179 26.276 29.179 78.831 0 52.661-10.102 78.993-30.307 78.993-18.7 0-28.05-25.202-28.05-75.607v-6.1286c0-50.727 9.726-76.09 29.179-76.09zm-258.58 282.12a247.62 49.523 0 0 0 247.62 49.524 247.62 49.523 0 0 0 247.62-49.524z"/></g></svg>
