<?xml version="1.0" encoding="UTF-8"?>
<!-- Created with Inkscape (http://www.inkscape.org/) -->
<svg width="512" height="512" version="1.1" viewBox="0 0 512 512" xmlns="http://www.w3.org/2000/svg" xmlns:cc="http://creativecommons.org/ns#" xmlns:dc="http://purl.org/dc/elements/1.1/" xmlns:rdf="http://www.w3.org/1999/02/22-rdf-syntax-ns#"><g transform="translate(0 -1221)"><path fill="currentColor" d="m76.356 1369.3v92.708l-3.2-7.4854h-59.691l6.7531 22.458h56.138v22.458h-49.385l6.7106 22.458h42.675v22.444h-35.922l6.7108 22.458h29.211v18.074h359.29v-18.074h29.211l6.7106-22.458h-35.922v-22.444h42.675l6.7106-22.458h-49.385v-22.458h56.138l6.7529-22.458h-59.691l-3.2007 7.4854v-92.708zm215.85 13.14c20.397 0 37.526 6.412 51.373 19.229l-24.7 27.083c-13.005-7.6731-22.376-11.505-28.083-11.505-4.3972 0-8.1814 1.6725-11.363 5.0449-3.1807 3.2768-4.7648 7.2021-4.7648 11.786 0 9.0761 8.2319 16.942 24.7 23.586 12.07 5.1473 21.189 9.8167 27.364 14.027 6.1749 4.1147 11.321 9.8782 15.437 17.27 4.2102 7.3916 6.3164 15.387 6.3164 23.996 0 15.812-6.4111 29.568-19.23 41.264-12.725 11.696-27.781 17.538-45.184 17.538-19.087 0-37.942-8.9754-56.561-26.94l26.095-30.454c11.696 12.071 22.65 18.103 32.848 18.103 4.7713 0 9.3479-2.1095 13.746-6.3147 4.3972-4.3025 6.598-8.7996 6.598-13.478 0-9.6376-10.148-18.106-30.452-25.404-11.602-4.212-19.834-8.1374-24.7-11.786-4.8655-3.741-8.9815-9.1256-12.35-16.143-3.2749-7.1099-4.9062-14.362-4.9062-21.753 0-16.374 5.3209-29.655 15.987-39.854 10.666-10.199 24.613-15.297 41.829-15.297zm-128.7 2.5225h39.587v184.27h-39.587zm-163.51 24.642 6.7529 22.458h56.759l-9.6148-22.458zm458.1 0-9.6007 22.458h56.744l6.7529-22.458z"/></g></svg>
