<?xml version="1.0" encoding="UTF-8"?>
<!-- Created with Inkscape (http://www.inkscape.org/) -->
<svg width="512" height="512" version="1.1" viewBox="0 0 512 512" xmlns="http://www.w3.org/2000/svg" xmlns:cc="http://creativecommons.org/ns#" xmlns:dc="http://purl.org/dc/elements/1.1/" xmlns:rdf="http://www.w3.org/1999/02/22-rdf-syntax-ns#"><g transform="translate(0 -1221)"><path fill="currentColor" d="m396.47 1545.6q6.796 0 12.393-5.1969 5.9965-5.5967 7.5955-14.791l29.183-183.49h66.361l-28.783 183.49q-5.9964 36.778-33.98 61.564-27.984 24.785-63.163 24.785-31.182 0-51.17-19.588-19.589-19.988-19.589-51.57 0-7.1958 1.1993-15.191l29.183-183.49h66.361l-28.783 183.49q-0.39984 1.9988-0.39984 5.1969 0 6.7961 3.9976 10.794 3.9977 3.9976 9.5944 3.9976zm-359.69-169.9v-33.58h139.12v63.563h-77.155l-6.3962 37.978h57.566v63.563h-67.56l-10.394 67.96v33.58h-71.958zm177.02 128.78h56.67m-69.083 87.096h56.67m-23.571-232.26h56.67m-60.808 29.032h56.67m-60.808 29.032h56.67m-60.808 29.032h56.67m-60.808 29.032h56.67m-64.945 58.064h56.67m-60.808 29.032h56.67m33.623-220.41-37.998 266.63m-31.698-267.86-37.998 266.63 17.205 2.4531 1.3848-9.7226h43.537l-1.0352 7.2695 17.207 2.4531 37.998-266.63-17.205-2.4531-1.3848 9.7226h-43.539l1.0352-7.2695zm13.691 27.104h43.539l-1.6602 11.652h-43.539zm-4.1387 29.031h43.539l-1.6602 11.652h-43.539zm-4.1367 29.033h43.539l-1.6602 11.65h-43.539zm-4.1387 29.031h43.539l-1.6602 11.652h-43.539zm-4.1367 29.031h43.539l-1.6602 11.652h-43.539zm-4.1367 29.033h43.539l-1.6602 11.65h-43.539zm-4.1367 29.031h43.537l-1.6602 11.652h-43.537zm-4.1367 29.031h43.537l-1.6602 11.652h-43.537zm23.872-229.1-37.998 266.63"/></g></svg>
