<?xml version="1.0" encoding="UTF-8"?>
<!-- Created with Inkscape (http://www.inkscape.org/) -->
<svg width="512" height="512" version="1.1" viewBox="0 0 512 512" xmlns="http://www.w3.org/2000/svg"><path fill="currentColor" d="m55.467 128a55.467 55.467 0 0 0-55.467 55.467 55.467 55.467 0 0 0 55.467 55.467 55.467 55.467 0 0 0 55.467-55.467 55.467 55.467 0 0 0-55.467-55.467zm128 0a55.467 55.467 0 0 0-55.467 55.467 55.467 55.467 0 0 0 55.467 55.467 55.467 55.467 0 0 0 55.467-55.467 55.467 55.467 0 0 0-55.467-55.467zm107.17 11.717c-19.37 2.1111-29.217 11.513-29.55 28.217 1.519 13.222 9.5185 20.778 24 22.667 1.2611 0.51882 2.8157 0.89446 4.6665 1.1167l1.7836 0.43349 0.66731 0.23296h0.66731c0.99985 0.37035 2.1803 0.66133 3.55 0.88329l0.45142 0.21674 0.88371 0.23296h0.6673l1.7836 0.4335 0.88371 0.23296 0.66731 0.43349 0.89984 0.23296c2.9639 2.3334 4.2282 5.513 3.7834 9.55-0.51968 0.81494-1.0482 1.8575-1.5674 3.1167l-3.3333 2.2167-0.22614 0.44971-0.6673 0.21675-0.66731 0.4497c-12.111 2.6667-23.085-0.82005-32.9-10.45l-3.0995 2.6667-0.45141 0.21675-0.448 0.23296-0.448 0.43349-0.43179 0.23296-0.448 0.66646-0.6673 0.21674-0.66731 0.44971-0.448 0.43349-0.66731 0.44971-0.45141 0.66645c-0.33195 0.11094-0.62208 0.33366-0.88371 0.66646-0.33195 0.11093-0.62208 0.33365-0.88372 0.66645-0.73813 0.25941-1.4061 0.77227-1.9996 1.55-0.33195 0.11093-0.63829 0.33365-0.89984 0.66645l-0.88371 0.44971-0.66731 0.88328c14.63 16.148 33.519 20.678 56.667 13.567 7.4444-2.5926 12.624-8.0111 15.55-16.233 2.7414-8.037 1.4062-15.815-3.9999-23.333-0.55467-0.62976-1.2901-1.2963-2.2157-2-0.3712-0.40704-0.89984-0.85163-1.5675-1.3333l-0.43179-0.21675c-0.0341-0.14763-0.1937-0.30208-0.45141-0.44971-0.92561-0.81493-2.106-1.55-3.55-2.2166l-0.448-0.44971-2.8833-1.1-0.66731-0.23296c-0.48042-0.11093-1.0804-0.33365-1.7836-0.66645l-1.7836-0.43349c-0.62891-0.11094-1.3642-0.33366-2.2157-0.66646h-0.66731l-0.88363-0.23296-1.116-0.43349-0.88363-0.23296h-0.66731l-1.1159-0.43349-0.88371-0.23296-0.89984-0.21675-0.88372-0.21675-0.89984-0.23296c-0.81578-0.0768-1.7706-0.2961-2.8833-0.66645l-3.55-0.66645-3.7835-1.3333c-1.8609-1.7778-2.8188-4.137-2.8833-7.1l1.0998-2.6667 0.22614-0.44971c0.6673-0.48128 1.403-1.1482 2.2158-2 0.62891-0.22187 1.2288-0.59819 1.7835-1.1167 9.9259-2.7407 19.55-0.29611 28.883 7.3334 0.70315-0.51883 1.4385-1.2537 2.2157-2.2167l0.448-0.21675 0.22614-0.44971 1.332-0.88328c0.3712-0.33365 0.81579-0.86298 1.332-1.5667l0.88371-0.43349 0.448-0.66646 1.3346-1.3329 0.88372-0.44971 0.6673-0.66645 0.448-0.66646 2.2157-1.7833 0.45142-0.4335c-9.5672-9.7035-22.012-14.37-37.308-14zm47.7 2v16.883h24.018v68.215h17.552v-68.217h24.018v-16.883h-64.669zm82.034 0.21674v84.882h17.626v-60.883l2.8833 3.7833c-0.0341 0.14848 0.0256 0.28501 0.22528 0.43349 0.0341 0.14763 0.1937 0.30208 0.45141 0.44971 0.0683 0.25941 0.22528 0.48128 0.45141 0.66645l0.22614 0.66645 0.6673 0.66646 0.22614 0.66645c0.44202 0.51883 0.95786 1.2536 1.5513 2.2166l0.66731 0.66645 1.1159 2 0.66731 0.66645c0.40618 0.85163 1.0062 1.6722 1.7836 2.45l0.43179 0.88328 0.6673 0.90002 0.89984 1.0999c0.44544 0.96299 1.1804 2.1593 2.2157 3.5667 0.40619 0.74069 1.0062 1.4759 1.7836 2.2167-0.0341 0.14848 0.0256 0.30208 0.22614 0.44971l0.89984 1.3332 0.6673 1.3333c0.51968 0.51883 1.032 1.1852 1.5514 2 0.0341 0.14763 0.19371 0.28502 0.45142 0.4335l0.88371 1.3333 0.66731 0.90001 0.22613 0.66645 0.43264 0.66646 0.68352 0.66645 0.22613 0.66645c0.44203 0.51883 0.95787 1.2536 1.5513 2.2166 0.96111-0.9629 2.1576-2.45 3.5668-4.45 0.40619-0.59221 0.85163-1.3963 1.332-2.4334 0.59307-0.55552 1.2611-1.3759 1.9996-2.45l0.22528-0.66645 0.66731-0.66646 0.448-0.88337c0.81578-0.92586 1.7028-2.1907 2.6672-3.7832l0.45141-0.88337c0.59051-0.55552 1.2578-1.3759 1.9996-2.45l0.66731-0.88337 1.9996-3.1166 2.6673-3.7833 0.88371-1.3333 0.88372-1.3333 0.89984-1.3333c0.70314-0.85162 1.4384-1.9629 2.2157-3.3334 0.33194-0.37035 0.63829-0.81493 0.89984-1.3333l1.0998-1.3332c0.22613 0.99993 0.29013 2.1963 0.22613 3.5666v55.548c-0.29013 0.88892-5e-3 1.4019 0.88372 1.55h16.667v-84.884h-22.669l-1.9997 3.1167-0.448 0.66645c-0.22613 0.40704-0.58026 0.85163-1.0998 1.3332l-0.22614 0.66645-0.448 0.4335-0.43178 0.66645-0.22614 0.66645c-0.44202 0.37035-0.95786 0.96854-1.5513 1.7834l-0.448 1.1167c-0.55467 0.44458-1.0675 1.111-1.5513 2l-0.45141 0.88337-0.66731 0.44971-0.6673 1.3333-0.66731 0.66646-0.66731 0.88337c-0.33194 0.77738-0.93209 1.6666-1.7836 2.6667l-2.2157 3.3333-0.66731 1.1167-3.55 4.8834-0.22613 0.66645-0.66731 0.21675c-0.40618-0.85163-1.074-1.8092-1.9997-2.8833l-0.22528-0.66645-0.43264-0.21675-0.89984-1.5667-0.43179-0.43349c-0.22613-0.51883-0.59989-1.1167-1.1159-1.7833l-0.22613-0.44971c-0.40619-0.66645-0.98688-1.4018-1.7674-2.2166l-0.22613-0.66646-0.66731-1.1167-0.88371-0.88329-0.45141-0.88337c-0.40619-0.74069-0.98697-1.4926-1.7674-2.2333l-0.22613-0.66645-0.448-0.4335-0.66731-1.1167-0.43264-0.88328-0.89984-0.90001-0.6673-0.88338c-0.0964-0.37034-0.33195-0.74581-0.66731-1.1166-0.48043-1.0371-1.303-2.2167-2.4511-3.55l-0.88372-1.3333-0.45141-0.66646-0.448-0.66645-0.88371-1.3333h-21.57zm-91.834 131.13a55.467 55.467 0 0 0-55.467 55.467 55.467 55.467 0 0 0 55.467 55.467 55.467 55.467 0 0 0 55.467-55.467 55.467 55.467 0 0 0-55.467-55.467zm128 0a55.467 55.467 0 0 0-55.467 55.467 55.467 55.467 0 0 0 55.467 55.467 55.467 55.467 0 0 0 55.467-55.467 55.467 55.467 0 0 0-55.467-55.467zm-258.35 11.717c-19.359 2.1148-29.217 11.518-29.55 28.217 1.519 13.222 9.5185 20.778 24 22.667 1.261 0.51882 2.8157 0.89463 4.6665 1.1165l1.7836 0.43349 0.66731 0.23211h0.6673c0.99985 0.37035 2.1803 0.66133 3.55 0.88337l0.45141 0.21589 0.88372 0.23211h0.68352l1.7673 0.43349 0.89984 0.23211 0.66731 0.43349 0.88371 0.23211c2.964 2.3334 4.2282 5.513 3.7832 9.55-0.51883 0.81494-1.0482 1.8574-1.5675 3.1168l-3.3335 2.2167-0.22614 0.44971-0.6673 0.21589-0.66731 0.44971c-12.112 2.6666-23.085-0.82091-32.9-10.45l-3.0994 2.6666-0.448 0.21589-0.448 0.23211-0.43179 0.44971-0.448 0.21589-0.448 0.66645-0.6673 0.2159-0.66731 0.4497-0.45141 0.44971-0.66731 0.43349-0.43179 0.66646c-0.33194 0.10922-0.63829 0.33365-0.89984 0.66645-0.33194 0.10923-0.62208 0.33365-0.88371 0.66645-0.73813 0.25771-1.4062 0.78848-1.9996 1.5668-0.33536 0.11008-0.64171 0.33365-0.89984 0.66645l-0.88372 0.4335-0.6673 0.90018c14.63 16.148 33.518 20.661 56.667 13.55 7.4447-2.5927 12.624-7.9944 15.55-16.217 2.7414-8.037 1.4061-15.815-4.0002-23.333-0.55467-0.62976-1.2901-1.2962-2.2157-2-0.3712-0.40704-0.88371-0.85162-1.5514-1.3333l-0.45142-0.23211c-0.0341-0.14848-0.1937-0.28416-0.448-0.43349-0.92561-0.81493-2.106-1.5665-3.55-2.2334l-0.448-0.43349-2.8833-1.1165-0.6673-0.2159c-0.48043-0.11008-1.0805-0.33365-1.7836-0.66645l-1.7674-0.44971c-0.6289-0.11008-1.3804-0.33365-2.2318-0.66645h-0.6673l-0.88371-0.23211-1.1159-0.43349-0.88371-0.23211h-0.66731l-1.1159-0.43349-0.88371-0.23211-0.89984-0.21589-0.88372-0.21589-0.88371-0.23211c-0.81578-0.0768-1.79-0.29696-2.8994-0.66645l-3.55-0.66646-3.7835-1.3333c-1.861-1.7778-2.8188-4.137-2.8833-7.1l1.0998-2.6666 0.22614-0.44971c0.6673-0.48128 1.403-1.1482 2.2157-2 0.6289-0.22272 1.2288-0.59818 1.7836-1.1165 9.9262-2.7408 19.55-0.29696 28.884 7.3333 0.70314-0.51797 1.4384-1.2536 2.2157-2.2167l0.448-0.21589 0.22613-0.44971 1.332-0.88337c0.3712-0.3328 0.81579-0.86306 1.332-1.5668l0.88371-0.43349 0.448-0.66645 0.66731-0.66646 0.66731-0.66645 0.88371-0.44971 0.6673-0.66645 0.448-0.66645 2.2157-1.7833 0.45142-0.43349c-9.5888-9.7-22.028-14.366-37.316-14zm-162.73 0.43349c-14.667 1.8889-25.18 10.196-31.55 24.9-6.2965 15.444-4.9629 31.069 3.9999 46.883 8.4075 12.296 20.767 17.852 37.1 16.667 16.148-1.3332 27.191-10.222 33.117-26.667l-2.6672-0.88337c-0.44544-0.25771-1.0256-0.48213-1.7674-0.66645l-0.68352-0.44971-0.88371-0.21589-1.5513-0.66646-0.66731-0.2321-1.332-0.4335-0.89984-0.4497c-0.99985-0.48128-2.2479-0.92596-3.7667-1.3332-0.96435-0.62976-2.1609-1.074-3.5668-1.3333-1.1095 7.8889-5.6925 13.154-13.766 15.783-6.4075 1.9262-12.561 0.88337-18.45-3.1168-7.1474-6.1111-10.036-15.154-8.6667-27.117-0.22613-11.519 4.889-19.296 15.333-23.333 13.482-2.6296 22.08 2.7889 25.783 16.233l2.4318-0.9001 0.89984-0.21589 0.448-0.44971h0.66731l0.43179-0.43349h0.66731l0.448-0.44971h0.66731l0.45141-0.4497 1.0998-0.2159c0.85163-0.2577 1.8254-0.704 2.8995-1.3332l0.88371-0.21589 0.89984-0.44971 3.7664-1.3333 0.89984-0.66645c-6.8519-18.741-21.074-27.561-42.667-26.45zm51.333 1.5666v16.883h24.001v68.215h17.568v-68.217h24.001v-16.883h-64.668z" stroke-width="11.093"/></svg>
