<?xml version="1.0" encoding="UTF-8"?>
<!-- Created with Inkscape (http://www.inkscape.org/) -->
<svg width="512" height="512" version="1.1" viewBox="0 0 512 512" xmlns="http://www.w3.org/2000/svg" xmlns:cc="http://creativecommons.org/ns#" xmlns:dc="http://purl.org/dc/elements/1.1/" xmlns:rdf="http://www.w3.org/1999/02/22-rdf-syntax-ns#"><g transform="translate(0 -1221)"><path fill="currentColor" d="m85.336 1349a85.325 85.333 0 0 0-85.325 85.333 85.325 85.333 0 0 0 85.325 85.333 85.325 85.333 0 0 0 55.995-21.067c9.4675 5.7344 19.348 11.414 29.548 16.751a85.325 85.333 0 0 0-0.19284 4.3144 85.325 85.333 0 0 0 85.326 85.333 85.325 85.333 0 0 0 85.326-85.333 85.325 85.333 0 0 0-0.13652-4.3469c10.174-5.3214 20.023-10.986 29.464-16.7a85.325 85.333 0 0 0 56.011 21.05 85.325 85.333 0 0 0 85.325-85.333 85.325 85.333 0 0 0-85.325-85.333 85.325 85.333 0 0 0-85.326 85.333 85.325 85.333 0 0 0 5.147 28.933c-6.0886 3.5601-12.318 7.0451-18.665 10.334a85.325 85.333 0 0 0-71.81-39.267 85.325 85.333 0 0 0-71.76 39.332c-6.353-3.2955-12.597-6.8062-18.712-10.382a85.325 85.333 0 0 0 5.1663-28.95 85.325 85.333 0 0 0-85.326-85.333zm0.51537 36.067c10.277 0 18.528 3.8315 24.731 11.517 2.825 3.5158 4.831 7.7432 6.0306 12.65h-17.215c-2.7347-5.5995-7.3347-8.4002-13.815-8.4002-3.7473 0-7.0825 1.0411-9.9991 3.1147-3.5668 2.5941-5.347 6.3863-5.347 11.385v37.582c0 3.799 1.128 6.912 3.3992 9.3662 3.4248 3.6573 7.4933 5.4835 12.215 5.4835 3.4248 0 6.4815-1.0582 9.1658-3.1864 3.657-2.8706 5.4823-6.7601 5.4823-11.667v-12.65h-14.649v-15.768h32.014v26.117c0 7.0366-1.9028 13.385-5.7016 19.034-3.2378 4.7667-7.4069 8.3798-12.499 10.832-4.3535 2.0839-9.0935 3.1164-14.232 3.1164-11.063 0-19.792-4.2837-26.18-12.851-4.2569-5.7412-6.3854-12.448-6.3854-20.132v-32.85c0-7.3147 2.2446-13.925 6.7323-19.852 6.437-8.5641 15.184-12.85 26.247-12.85zm308.74 1.8705h39.996c2.7734 0 4.9019 0.1707 6.3854 0.3926 1.4761 0.3242 3.0055 0.8021 4.5857 1.536 6.0177 3.0515 10.184 7.8762 12.499 14.45 1.0188 2.8706 1.529 5.7856 1.529 8.7501v44.366c0.0341 6.6202-2.2186 12.494-6.7994 17.633-3.7021 3.9799-7.6701 6.3795-11.882 7.1663-0.92834 0.3242-3.3668 0.4437-7.3496 0.4437h-38.962zm17.365 15.766v63.266h20.198c3.2895 0 5.8822-1.0923 7.7824-3.2632 1.529-1.8056 2.2831-3.8895 2.2831-6.2498v-44.368c0-2.915-1.012-5.2753-3.0507-7.0827-1.7543-1.536-3.9989-2.3023-6.7323-2.3023zm-193.91 69.567h18.681l19.432 65.833 19.448-65.833h18.265l-27.714 94.8h-20.548z"/></g></svg>
