<?xml version="1.0" encoding="UTF-8"?>
<!-- Created with Inkscape (http://www.inkscape.org/) -->
<svg width="512" height="512" version="1.1" viewBox="0 0 512 512" xmlns="http://www.w3.org/2000/svg" xmlns:cc="http://creativecommons.org/ns#" xmlns:dc="http://purl.org/dc/elements/1.1/" xmlns:rdf="http://www.w3.org/1999/02/22-rdf-syntax-ns#"><g transform="translate(0 -1221)"><path fill="currentColor" d="m81.991 1221v426.67h68.266v-170.67h119.47v170.67h36.733a120.74 198.46 43.647 0 1-207.4 40.398 120.74 198.46 43.647 0 1-12.499-17.432h-19.534a155.23 241.61 43.504 0 0 19.967 29.766 155.23 241.61 43.504 0 0 277.57-61.667 155.23 241.61 43.504 0 0 60.333-283.67 155.23 241.61 43.504 0 0-69.833-31.665v65.966a120.74 198.46 43.647 0 1 21.567 15.034 120.74 198.46 43.647 0 1-38.633 210.73v-394.13h-68.266v187.73h-119.47v-187.73zm170.67 121.53a155.23 241.61 43.504 0 0-77.967 49.034h77.967zm-187.73 208.87a155.23 241.61 43.504 0 0 0 114.8z"/></g></svg>
