<?xml version="1.0" encoding="UTF-8"?>
<!-- Created with Inkscape (http://www.inkscape.org/) -->
<svg width="512" height="512" version="1.1" viewBox="0 0 135.47 135.47" xmlns="http://www.w3.org/2000/svg"><g transform="translate(0 -323.07)"><path fill="currentColor" d="m0 323.07v125.89l22.305-22.31c4.0691-4.0692 6.9846-7.0742 8.7628-10.118 1.1319-1.9373 1.915-4.0365 2.3652-6.7681-7.6236-2.9399-13.107-10.351-13.107-18.954 0-11.142 9.1775-20.32 20.32-20.32 11.142 0 20.32 9.1781 20.32 20.32 0 8.9004-5.8602 16.529-13.896 19.246-0.62534 5.1562-2.1081 9.559-4.3021 13.314-2.9631 5.0716-6.8211 8.8049-10.88 12.864l-22.304 22.305h116.31l-22.31-22.305c-4.0589-4.0589-7.9163-7.7922-10.879-12.864-2.1948-3.7564-3.6886-8.1603-4.3181-13.319-8.025-2.723-13.88-10.348-13.88-19.241 0-11.142 9.178-20.32 20.32-20.32 11.142 0 20.32 9.1781 20.32 20.32 0 8.6038-5.4836 16.014-13.107 18.954 0.45026 2.7315 1.2333 4.8308 2.3652 6.7681 1.7782 3.0435 4.6942 6.0486 8.7633 10.118l22.299 22.321v-125.9h-135.47zm54.187 20.32v13.541c-3.821 0-6.7789 2.9579-6.7789 6.7789h-13.541c0-11.142 9.178-20.32 20.32-20.32zm27.093 0c11.142 0 20.32 9.1781 20.32 20.32h-13.541c0-3.821-2.9579-6.7789-6.7789-6.7789v-13.541zm-40.635 40.64c-3.821 0-6.7784 2.958-6.7784 6.7789 0 3.8211 2.9574 6.7629 6.7784 6.7629 3.821 0 6.7629-2.9418 6.7629-6.7629 0-3.8209-2.9419-6.7789-6.7629-6.7789zm54.182 0c-3.821 0-6.7789 2.958-6.7789 6.7789 0 3.8211 2.9579 6.7629 6.7789 6.7629 3.821 0 6.7784-2.9418 6.7784-6.7629 0-3.8209-2.9574-6.7789-6.7784-6.7789zm-40.64 47.414h27.093v13.546h-27.093v-13.546z"/></g></svg>
